<?xml version="1.0" standalone="no"?>
<!DOCTYPE svg PUBLIC "-//W3C//DTD SVG 20010904//EN"
 "http://www.w3.org/TR/2001/REC-SVG-20010904/DTD/svg10.dtd">
<svg version="1.0" xmlns="http://www.w3.org/2000/svg"
 width="260.000000pt" height="260.000000pt" viewBox="0 0 260.000000 260.000000"
 preserveAspectRatio="xMidYMid meet">
<metadata>
Created by potrace 1.11, written by Peter Selinger 2001-2013
</metadata>
<g transform="translate(0.000000,260.000000) scale(0.100000,-0.100000)"
fill="#000000" stroke="none">
<path d="M121 2219 c-76 -16 -121 -78 -121 -169 0 -101 51 -157 146 -162 l49
-3 58 -175 c32 -96 128 -389 214 -650 85 -261 168 -501 184 -532 36 -72 81
-107 148 -115 101 -12 171 28 220 125 15 30 95 278 139 432 8 27 118 387 135
445 3 7 68 -182 84 -240 8 -34 175 -540 192 -586 50 -131 123 -186 234 -176
36 3 71 13 86 24 40 30 85 102 110 179 27 81 239 770 338 1099 25 83 48 153
52 157 3 4 31 10 61 13 109 13 155 69 148 181 -5 75 -26 110 -84 139 -36 18
-61 20 -289 20 -267 2 -328 -6 -369 -44 -54 -51 -59 -191 -10 -245 31 -32 65
-47 119 -51 33 -2 39 -6 37 -21 -4 -20 -90 -334 -122 -444 -10 -36 -38 -132
-61 -215 -23 -82 -45 -156 -49 -164 -5 -9 -18 20 -38 80 -98 299 -246 729
-267 768 -12 25 -31 54 -42 63 -27 25 -83 45 -118 43 -16 -1 -38 -3 -47 -4
-28 -2 -90 -62 -109 -106 -15 -34 -64 -186 -244 -755 l-33 -105 -21 75 c-12
41 -31 102 -41 135 -10 33 -42 139 -70 235 -28 96 -65 220 -81 275 -17 55 -33
108 -35 118 -4 11 0 17 13 18 136 4 194 53 194 166 1 87 -20 126 -81 158 -31
17 -64 19 -315 20 -154 0 -295 -2 -314 -6z"/>
</g>
</svg>
